<svg width="32" height="32" viewBox="0 0 32 32" fill="none" xmlns="http://www.w3.org/2000/svg">
<path fill-rule="evenodd" clip-rule="evenodd" d="M21.5236 20.7717L29.2906 28.5388C29.4921 28.7475 29.4892 29.0792 29.2841 29.2843C29.0789 29.4895 28.7473 29.4923 28.5386 29.2908L20.7716 21.5236C16.6848 25.2028 10.4106 24.956 6.62549 20.967C2.84037 16.978 2.92269 10.6996 6.81109 6.81129C10.6995 2.92294 16.978 2.84063 20.967 6.6257C24.956 10.4108 25.2029 16.6849 21.5236 20.7717ZM4.98363 14.0244C4.98363 19.0174 9.0313 23.065 14.0244 23.065C19.015 23.0592 23.0592 19.015 23.0651 14.0244C23.0651 9.03141 19.0174 4.98379 14.0244 4.98379C9.0313 4.98379 4.98363 9.03141 4.98363 14.0244Z" fill="black"/>
</svg>
