<svg width="24" height="24" viewBox="0 0 24 24" fill="none" xmlns="http://www.w3.org/2000/svg">
<path fill-rule="evenodd" clip-rule="evenodd" d="M18.0937 5.42956C18.695 8.04536 17.4099 10.7298 14.9953 11.9018C18.6303 13.0124 21.115 16.365 21.1201 20.1659V21.6059C21.1201 21.871 20.9052 22.0859 20.6401 22.0859C20.375 22.0859 20.1601 21.871 20.1601 21.6059V20.1659C20.1601 15.9243 16.7216 12.4859 12.4801 12.4859C8.23854 12.4859 4.80009 15.9243 4.80009 20.1659V21.6059C4.80009 21.871 4.58518 22.0859 4.32009 22.0859C4.05499 22.0859 3.84009 21.871 3.84009 21.6059V20.1659C3.84516 16.365 6.32989 13.0124 9.96489 11.9018C7.55028 10.7298 6.2652 8.04536 6.86649 5.42956C7.46778 2.81376 9.79607 0.959961 12.4801 0.959961C15.1641 0.959961 17.4924 2.81376 18.0937 5.42956ZM12.4801 1.92586C9.82912 1.92586 7.68009 4.07489 7.68009 6.72586C7.68305 9.37559 9.83035 11.5229 12.4801 11.5259C15.1311 11.5259 17.2801 9.37682 17.2801 6.72586C17.2801 4.07489 15.1311 1.92586 12.4801 1.92586Z" fill="black"/>
</svg>
